<svg width="383" height="383" viewBox="0 0 383 383" fill="none" xmlns="http://www.w3.org/2000/svg">
<path d="M332.311 0C359.925 5.34215e-06 382.311 22.3858 382.311 50V332.311C382.311 359.925 359.925 382.311 332.311 382.311H50C22.3858 382.311 0 359.925 0 332.311V50C3.83333e-05 22.3858 22.3858 0 50 0H332.311ZM122.561 91.9941C104.138 88.3576 86.2568 100.344 82.6201 118.766L77.3906 145.255C73.7544 163.677 85.7411 181.559 104.163 185.195L142.424 192.748L128.287 264.366L259.75 290.317C278.172 293.954 296.054 281.967 299.69 263.545L304.92 237.057C308.556 218.635 296.57 200.752 278.148 197.115L239.886 189.562L254.023 117.945L122.561 91.9941Z" fill="white"/>
</svg>
